<svg class="image es-dose__img px-2 es-animation-pulsing" alt="" id="Warstwa_1" data-name="Warstwa 1" xmlns="http://www.w3.org/2000/svg" viewBox="0 0 265.87 168.99">
  <path d="m149.05,146.99c-4.91-6.82-9.68-13.74-14.17-20.85s-8.89-14.64-12.31-22.47c-1.31-3-2.32-6.04-4.27-8.7s-4.49-5.08-7.29-7.08c-6.12-4.37-13.53-6.92-20.83-8.45-8.05-1.69-16.22-2.07-24.43-1.96-6.94.1-13.9.47-20.74,1.68-6.35,1.12-12.73,3.07-18.19,6.57-5.7,3.64-9.98,8.82-12.56,15.06-1.69,4.09-2.69,8.5-3.76,12.78-1.22,4.9-2.3,9.82-3.3,14.77-2.01,9.9-3.7,19.87-5.65,29.78-.48,2.44-.97,4.87-1.48,7.3-.66,3.14,4.16,4.48,4.82,1.33,4.04-19.13,6.69-38.56,11.89-57.43.99-3.58,2-7.09,3.89-10.32,1.5-2.55,3.3-4.7,5.57-6.67,4.34-3.77,9.95-6.02,15.63-7.42,6.29-1.55,12.66-2.09,19.14-2.33,7.45-.27,14.98-.32,22.38.71,7.31,1.02,14.72,2.9,21.23,6.48,2.75,1.51,5.27,3.27,7.46,5.52,1.95,2,3.57,4.48,4.54,6.95,6,15.34,15.46,29.34,24.9,42.74,1.06,1.51,2.14,3.02,3.22,4.52.79,1.09,2.18,1.62,3.42.9,1.08-.63,1.69-2.32.9-3.42h0Z" style="fill: #fff; stroke-width: 0px;"/>
  <path d="m257.74,164.6c-2.08-18.72-15.3-37.74-34.92-40.48-8.08-1.13-16.37-.87-24.46.05-3.88.44-7.75,1.02-11.55,1.92-3.55.84-7.12,1.94-10.17,4.01-2.39,1.62-4.49,3.6-6.72,5.42-2.11,1.72-4.39,3.24-6.74,4.59s-4.99,2.65-7.62,3.66c-1.33.51-2.67.97-4.04,1.38-1.2.36-2.72,1.04-3.96.69-3.1-.87-4.43,3.95-1.33,4.82,2.61.73,5.36-.27,7.85-1.08s4.81-1.74,7.13-2.82c4.52-2.1,8.73-4.8,12.58-7.98,3.24-2.68,6.21-5.41,10.26-6.74,3.2-1.05,6.52-1.72,9.83-2.26,7.72-1.25,15.67-1.71,23.48-1.23,3.33.21,6.34.53,9.59,1.5,4.18,1.24,8,3.57,11.25,6.46,8.02,7.14,13.36,17.4,14.55,28.08.15,1.34,1.04,2.5,2.5,2.5,1.24,0,2.65-1.15,2.5-2.5h0Z" style="fill: #fff; stroke-width: 0px;"/>
  <path d="m153.18,164.78c4.15-.98,8.18-2.37,12.19-3.79,1.94-.69,3.88-1.37,5.84-1.99,1-.32,2.01-.62,3.02-.91.52-.14,1.03-.28,1.55-.42.3-.08.6-.15.9-.22.53-.09.61-.13.23-.11l-1.1-.64c-.21-.17-.1-.47-.07.08.02.32.07.64.1.95.07.8.13,1.59.16,2.39.06,1.52.02,3.03-.08,4.55-.09,1.35,1.21,2.5,2.5,2.5,1.43,0,2.41-1.15,2.5-2.5.11-1.75.14-3.51.05-5.27-.09-1.63-.01-3.78-.81-5.25-1.02-1.87-2.95-1.96-4.8-1.53-1.63.38-3.24.85-4.84,1.34-6.25,1.94-12.29,4.48-18.68,5.99-3.13.74-1.81,5.56,1.33,4.82h0Z" style="fill: #fff; stroke-width: 0px;"/>
  <path d="m232.6,156c.8.66,1.55,1.39,2.23,2.18.16.18.32.46.51.62-.12-.09-.26-.35-.07-.08.09.12.17.24.26.36.3.43.58.88.85,1.33.25.43.47.87.68,1.32.03.08.23.54.09.18-.13-.34.01.04.04.1.1.24.19.49.27.73.16.46.3.93.41,1.41.06.25.12.5.17.76.04.18.17,1.1.07.36.09.69.22,1.25.73,1.77.43.43,1.15.76,1.77.73,1.21-.05,2.68-1.11,2.5-2.5-.34-2.56-1.06-4.96-2.33-7.23-1.18-2.11-2.77-4.03-4.64-5.57-1.01-.83-2.56-1.06-3.54,0-.84.92-1.08,2.65,0,3.54h0Z" style="fill: #fff; stroke-width: 0px;"/>
  <path d="m228.64,95.38c.92,3.4,1.6,7.58-.19,10.93s-5.16,5.86-8.78,6.77c-4.17,1.05-8.8.71-13.04.28s-8.79-1.68-11.99-4.76c-3.84-3.71-4.5-9.05-3.87-14.12.17-1.34-1.27-2.5-2.5-2.5-1.49,0-2.33,1.15-2.5,2.5-.7,5.67.29,11.52,3.91,16.07,3.4,4.28,8.69,6.57,13.98,7.42s10.96,1.18,16.23.18,9.27-4.01,12.18-8.18c3.21-4.59,2.79-10.79,1.4-15.92-.84-3.1-5.67-1.79-4.82,1.33h0Z" style="fill: #fff; stroke-width: 0px;"/>
  <path d="m191.37,82.25c-.78-3.07.23-6.61,2.42-8.89,2.46-2.57,6.04-3.41,9.48-3.62,8.83-.53,17.15,2.55,25.78,3.73,4.24.58,8.48.11,11.67-3l-4.27-1.77c.04.93.06,1.87,0,2.8-.04.75-.07,1.07-.18,1.61-.07.33-.16.65-.26.97-.05.15-.1.3-.16.45.1-.24.09-.22-.03.04-.12.24-.26.46-.4.69-.29.49.07-.02-.23.31-.89.99-1.51,1.38-2.8,2.09s-2.49,1.22-4.06,1.54c-3.19.64-6.67.32-9.85-.26-1.68-.31-3.34-.71-4.97-1.2-1.25-.38-2.8-.94-3.59-1.31-1.23-.56-2.69-.35-3.42.9-.63,1.08-.34,2.85.9,3.42,5.4,2.48,11.62,3.84,17.56,3.76,5.35-.07,11.82-2.01,14.83-6.82,1.66-2.65,1.75-5.97,1.63-8.99-.09-2.15-2.68-3.32-4.27-1.77-2.45,2.39-6.09,1.92-9.18,1.33-4.64-.89-9.23-2.05-13.9-2.79-7.99-1.26-18.71-1.96-24.45,5.03-2.97,3.62-4.28,8.5-3.12,13.08.79,3.12,5.61,1.8,4.82-1.33h0Z" style="fill: #fff; stroke-width: 0px;"/>
  <path d="m190.8,82.25c-2.31.26-4.72-.33-6.97.46-2.88,1.01-4.61,3.76-4.88,6.72-.16,1.71.47,3.33,1.57,4.61.85,1,2.67.94,3.54,0,.97-1.06.91-2.47,0-3.54-.23-.26.18.24.18.24-.02,0-.11-.16-.12-.19-.07-.11-.31-.64-.12-.19s0-.04-.03-.17c-.04-.16-.07-.32-.09-.49l.09.66c-.04-.38-.04-.75,0-1.12l-.09.66c.04-.27.09-.53.16-.79.03-.11.07-.22.11-.33.03-.07.05-.15.08-.22l-.16.38c0-.19.28-.56.39-.72.06-.1.13-.19.2-.29.25-.37-.43.51-.07.1.16-.19.36-.34.53-.52-.38.43-.39.28-.15.13.11-.07.22-.13.34-.19.46-.26-.55.18-.14.06.11-.03.21-.07.32-.1.26-.07.53-.12.8-.16l-.66.09c1.72-.22,3.46.09,5.18-.11.68-.08,1.26-.23,1.77-.73.43-.43.76-1.15.73-1.77s-.24-1.32-.73-1.77c-.46-.42-1.12-.81-1.77-.73h0Z" style="fill: #fff; stroke-width: 0px;"/>
  <path d="m235.06,89.01c.14.03.43.19.55.17-.11.02-.65-.3-.21-.08.08.04.16.09.24.13.18.11.36.23.53.34.38.26-.48-.4-.13-.1.09.08.18.16.27.24.16.15.31.31.46.47.28.32-.05-.13-.13-.18.08.05.14.2.2.28.06.09.12.19.17.29.12.22.11.45-.07-.2.06.2.13.39.16.59l-.09-.66c.06.46.02.94-.04,1.4l.09-.66c-.05.37-.13.74-.25,1.1-.01.04-.03.08-.04.12-.11.35.18-.41.17-.4-.05.09-.09.2-.14.29-.09.18-.24.33-.32.51-.01.03.49-.59.27-.35-.04.04-.07.09-.11.13-.07.08-.15.15-.23.22-.04.04-.1.07-.14.11-.01.01.62-.44.34-.26-.1.06-.19.13-.29.18-.11.06-.25.1-.35.18,0,0,.71-.27.37-.16-.06.02-.11.04-.17.06-.3.1-.6.16-.91.2l.66-.09c-.72.09-1.44.06-2.15-.03l.66.09c-.92-.13-1.82-.35-2.71-.63-1.25-.39-2.78.46-3.08,1.75-.31,1.36.41,2.66,1.75,3.08,3.12.97,7.31,1.52,9.79-1.18.8-.87,1.38-1.96,1.62-3.12s.37-2.46.02-3.58c-.39-1.24-1.18-2.37-2.16-3.23s-2.05-1.56-3.28-1.83-2.76.38-3.08,1.75c-.29,1.26.38,2.77,1.75,3.08h0Z" style="fill: #fff; stroke-width: 0px;"/>
  <path d="m29.32,127.99c-2.84,12.86-8.14,25.02-10.98,37.88-.69,3.14,4.13,4.47,4.82,1.33,2.84-12.86,8.14-25.02,10.98-37.88.69-3.14-4.13-4.47-4.82-1.33h0Z" style="fill: #fff; stroke-width: 0px;"/>
  <path d="m138.1,161.68c-9.68-9.59-17.46-21.05-25.33-32.11-1.86-2.62-3.72-5.23-5.62-7.81-.61-.82-1.42-1.35-2.49-1.19-.89.13-1.92.82-2.08,1.79-.7,4.22-1.69,8.56-3.62,12.26-.32.62-.67,1.22-1.04,1.81-.18.28-.36.56-.56.83-.08.12-.17.23-.25.34-.3.43,0,.02-.1.14-.66.81-1.36,1.57-2.12,2.29-.55.52-1.13.98-1.34,1.74-.22.81-.21,1.8-.24,2.64-.06,1.64,0,3.28.07,4.92.18,3.57.54,7.13.95,10.68.26,2.25.55,4.5.88,6.74.2,1.34,1.89,2.07,3.08,1.75,1.43-.39,1.94-1.73,1.75-3.08-.04-.25-.07-.5-.11-.76-.04-.27-.07-.54-.11-.8-.08-.61,0,.07-.01-.1-.03-.19-.05-.39-.08-.58-.29-2.18-.54-4.37-.77-6.56-.48-4.65-1.06-9.52-.51-14.19l-.73,1.77c5.91-5.33,8.41-12.84,9.67-20.52l-4.57.6c8.04,10.87,15.51,22.16,24.16,32.57,2.41,2.89,4.9,5.72,7.58,8.37,2.29,2.27,5.83-1.27,3.54-3.54h0Z" style="fill: #fff; stroke-width: 0px;"/>
  <path d="m82.1,19.41c-1.24,1.99-4.13,2.98-6.34,3.63-3.28.96-6.7,1.37-10.08,1.84s-6.53.92-9.66,1.95c-2.78.92-5.75,2.23-7.62,4.57-.84,1.05-1.03,2.51,0,3.54.87.87,2.69,1.06,3.54,0,1.71-2.14,4.48-3.08,7.04-3.77,3.39-.91,6.89-1.29,10.36-1.78,5.85-.83,13.65-1.96,17.09-7.44,1.71-2.73-2.61-5.25-4.32-2.52h0Z" style="fill: #fff; stroke-width: 0px;"/>
  <path d="m83.62,15.93c-.53,4.09.31,8.21,2.1,11.9.91,1.88,2.14,3.51,3.43,5.14.5.64.99,1.29,1.4,1.99.21.35.34.61.44.99.02.09.09.44.09.41-.02-.17-.06.45-.01.21-.24,1.33.36,2.69,1.75,3.08,1.21.33,2.83-.41,3.08-1.75.84-4.63-2.85-7.42-4.99-11.01-2-3.34-2.77-7.1-2.27-10.96.17-1.34-1.27-2.5-2.5-2.5-1.5,0-2.33,1.15-2.5,2.5h0Z" style="fill: #fff; stroke-width: 0px;"/>
  <path d="m87.41,6.96c5.54,2.37,7.28,8.81,8.71,14.13,2.03,7.56,4.02,15.27,4.06,23.15.02,4.39-.66,8.66-2.25,12.76-.49,1.26.54,2.74,1.75,3.08,1.41.39,2.59-.48,3.08-1.75,3.13-8.08,2.78-16.87,1.3-25.27-.74-4.19-1.78-8.32-2.88-12.43-.91-3.42-1.88-6.83-3.46-10.01-1.68-3.38-4.25-6.47-7.78-7.98-1.24-.53-2.68-.37-3.42.9-.62,1.05-.35,2.89.9,3.42h0Z" style="fill: #fff; stroke-width: 0px;"/>
  <path d="m85.62,2.74c-6.36-1.8-13.08-3.18-19.72-2.61s-12.24,2.88-16.89,7.26c-8.68,8.17-11.61,20.8-12.56,32.24-.7,8.36-.15,16.78,1.45,25.01.26,1.33,1.84,2.08,3.08,1.75,1.39-.38,2.01-1.75,1.75-3.08-2.39-12.24-2.41-25.61,1.28-37.61,1.44-4.68,3.57-9.31,6.83-13.02,3.58-4.06,8.28-6.61,13.65-7.41,6.63-.99,13.44.47,19.8,2.27,3.1.88,4.43-3.95,1.33-4.82h0Z" style="fill: #fff; stroke-width: 0px;"/>
  <path d="m50.51,46.65c.73,8.58,5.46,16.98,12.72,21.75,3.96,2.6,8.6,3.22,12.92,1.15,3.84-1.83,7.01-5.33,9.48-8.71,2.78-3.8,4.71-8.28,5.46-12.93.21-1.33-.34-2.69-1.75-3.08-1.19-.33-2.86.41-3.08,1.75-1.09,6.75-4.88,13.25-10.43,17.32-2.84,2.08-5.89,2.55-9.04.81s-5.59-4.45-7.47-7.35c-2.09-3.22-3.49-6.88-3.82-10.71-.11-1.35-1.07-2.5-2.5-2.5-1.26,0-2.61,1.15-2.5,2.5h0Z" style="fill: #fff; stroke-width: 0px;"/>
  <path d="m51.79,44.26c-.2.06-.39.1-.59.13l.66-.09c-.33.04-.66.04-.99,0l.66.09c-.35-.05-.69-.15-1.02-.28l.6.25c-.3-.13-.59-.3-.85-.5l.51.39c-.22-.18-.42-.37-.59-.59l.39.51c-.19-.25-.35-.51-.47-.8l.25.6c-.14-.34-.24-.68-.29-1.04l.09.66c-.04-.34-.04-.67,0-1l-.09.66c.05-.33.13-.66.26-.97l-.25.6s.04-.09.06-.14c.29-.62.44-1.24.25-1.93-.16-.58-.61-1.21-1.15-1.49-.58-.31-1.28-.46-1.93-.25-.59.19-1.22.57-1.49,1.15s-.49,1.1-.58,1.71c-.05.37-.12.75-.12,1.13,0,.4.06.81.12,1.21.17,1.15.75,2.19,1.5,3.06s1.81,1.45,2.88,1.77,2.39.34,3.5,0c.61-.18,1.17-.6,1.49-1.15s.45-1.33.25-1.93-.57-1.19-1.15-1.49-1.27-.45-1.93-.25h0Z" style="fill: #fff; stroke-width: 0px;"/>
  <path d="m89.33,49.44c.64-.08,1.29-.01,1.93.01.28,0,.55,0,.83-.02.46-.05.93-.09,1.37-.24,1.05-.36,1.89-.96,2.51-1.89.26-.38.43-.83.57-1.27.09-.26.15-.54.2-.81.14-.66.1-1.33-.25-1.93-.3-.52-.9-1.01-1.49-1.15-.64-.15-1.36-.11-1.93.25-.53.34-1.02.86-1.15,1.49-.08.36-.16.72-.3,1.07l.25-.6c-.07.17-.16.32-.27.47l.39-.51c-.1.12-.2.23-.32.33l.51-.39c-.16.12-.33.22-.51.3l.6-.25c-.24.09-.48.15-.73.19l.66-.09c-.96.13-1.92-.1-2.87.03-.34-.01-.67.06-.96.22-.31.1-.58.27-.8.52-.43.43-.76,1.15-.73,1.77s.24,1.32.73,1.77c.45.42,1.13.81,1.77.73h0Z" style="fill: #fff; stroke-width: 0px;"/>
  <g>
    <path d="m174.52,28.19c6.73-5.87,12.39-12.95,16.65-20.8l-4.66-1.26c-1.22,13.29-1.94,26.63-2.16,39.98-.05,3.22,4.95,3.22,5,0,.22-13.35.95-26.68,2.16-39.98.23-2.51-3.52-3.35-4.66-1.26-4.08,7.51-9.43,14.17-15.87,19.79-1.02.89-.91,2.63,0,3.54,1.01,1.01,2.52.89,3.54,0h0Z" style="fill: #fff; stroke-width: 0px;"/>
    <path d="m172.7,50.19c8.61-.54,17.24-.57,25.86-.1,3.22.18,3.21-4.83,0-5-8.61-.47-17.25-.43-25.86.1-3.2.2-3.22,5.2,0,5h0Z" style="fill: #fff; stroke-width: 0px;"/>
    <path d="m222.89,10.2c-6.07-1.75-13.57-1.96-18.92,1.92s-7.2,10.57-5.22,16.75c2.06,6.41,7.67,10.48,14.33,10.92,6.71.44,13.84-3.1,16.98-9.16,3.44-6.65.81-15.38-5.79-18.97-2.83-1.54-5.35,2.78-2.52,4.32,3.88,2.11,5.88,7.02,4.4,11.21-1.64,4.63-6.76,7.47-11.47,7.63s-9.04-2.09-10.84-6.51c-1.58-3.89-1.07-8.6,2.22-11.5,4.14-3.64,10.57-3.21,15.51-1.78,3.1.89,4.42-3.93,1.33-4.82h0Z" style="fill: #fff; stroke-width: 0px;"/>
  </g>
  <g>
    <path d="m240.91,26.12c7.73,1.11,15.46.98,23.14-.44,1.33-.25,2.08-1.85,1.75-3.08-.38-1.39-1.74-1.99-3.08-1.75-6.72,1.25-13.7,1.42-20.48.44-1.33-.19-2.69.33-3.08,1.75-.32,1.17.4,2.88,1.75,3.08h0Z" style="fill: #fff; stroke-width: 0px;"/>
    <path d="m249.88,14.16c.17,6.88.34,13.77.51,20.65.08,3.21,5.08,3.22,5,0-.17-6.88-.34-13.77-.51-20.65-.08-3.21-5.08-3.22-5,0h0Z" style="fill: #fff; stroke-width: 0px;"/>
  </g>
</svg>