<svg  id="Warstwa_1" data-name="Warstwa 1" xmlns="http://www.w3.org/2000/svg" viewBox="0 0 236.87 174.49">
  <path d="m236.86,171.23c-1.41-12.78-7.14-24.97-16.3-34.05-4.4-4.36-9.62-7.9-15.48-9.98-4.27-1.52-8.88-2.07-13.38-2.38-10.2-.7-20.63.07-30.68,1.89-3.96.72-7.96,1.6-11.69,3.14-3.14,1.29-5.81,3.26-8.4,5.43-1.96,1.64-3.43,2.97-5.36,4.28-4.77,3.22-9.99,5.8-15.23,8.15-4.92,2.21-9.99,4.24-15.22,5.64-3.11.83-1.79,5.66,1.33,4.82,4.59-1.23,9.03-2.98,13.4-4.83,4.76-2.02,9.44-4.24,13.93-6.81,1.96-1.12,3.88-2.3,5.7-3.63,2.19-1.6,4.15-3.46,6.27-5.14,3.49-2.77,7.31-4.14,11.58-5.18,9.33-2.26,19.11-3.09,28.69-2.98,4.56.05,9.02.31,13.33,1.2,5,1.04,9.61,3.25,13.66,6.36,10.47,8.06,17.4,20.99,18.85,34.06.15,1.34,1.04,2.5,2.5,2.5,1.24,0,2.65-1.15,2.5-2.5h0Z" style="fill: #fff; stroke-width: 0px;"/>
  <path d="m117.9,171.1c4.8-1.13,9.44-2.75,14.08-4.39,2.21-.78,4.43-1.56,6.67-2.27,1.22-.39,2.44-.75,3.67-1.09.59-.16,1.19-.32,1.78-.47.25-.06.69-.08.91-.22.38-.25.23.2-.2-.12l-.9-.9c.25.34.22,1.01.27,1.56.09.9.15,1.8.19,2.7.08,1.8.04,3.6-.08,5.4-.09,1.35,1.21,2.5,2.5,2.5,1.43,0,2.41-1.15,2.5-2.5.14-2.13.16-4.26.03-6.39-.11-1.76-.04-3.99-.92-5.56-1.11-2-3.27-1.87-5.17-1.41s-3.67.96-5.48,1.53c-7.08,2.21-13.93,5.09-21.17,6.79-3.13.74-1.81,5.56,1.33,4.82h0Z" style="fill: #fff; stroke-width: 0px;"/>
  <path d="m208.79,161.18c.92.76,1.77,1.58,2.54,2.48.2.23.39.46.58.7-.13-.17-.18-.24-.03-.03.1.14.2.27.29.41.34.49.67,1,.96,1.52.28.49.54.99.78,1.5.03.06.26.57.11.25-.13-.29.04.1.06.16.11.28.21.55.31.83.18.53.34,1.06.47,1.61.07.29.13.57.19.86.03.16.06.32.09.48.02.13.09.62.01.02.09.69.22,1.25.73,1.77.43.43,1.15.76,1.77.73,1.21-.05,2.68-1.11,2.5-2.5-.74-5.59-3.46-10.73-7.84-14.34-1.01-.83-2.56-1.06-3.54,0-.84.92-1.08,2.65,0,3.54h0Z" style="fill: #fff; stroke-width: 0px;"/>
  <path d="m204.37,92.23c.61,2.24,1.08,4.18,1,6.45s-.26,4.46-1.32,6.4c-2.12,3.86-6.07,6.77-10.3,7.79-4.83,1.17-10.17.79-15.06.26s-10.07-2.01-13.73-5.58c-4.39-4.27-5.17-10.45-4.44-16.27.17-1.34-1.27-2.5-2.5-2.5-1.49,0-2.33,1.15-2.5,2.5-.8,6.44.32,13.12,4.5,18.26,3.76,4.63,9.53,7.15,15.29,8.13s12.48,1.39,18.47.29,10.46-4.41,13.79-9.1c3.68-5.17,3.2-12.18,1.62-17.98-.84-3.1-5.67-1.79-4.82,1.33h0Z" style="fill: #fff; stroke-width: 0px;"/>
  <path d="m161.21,77.45c-.9-3.51.2-7.58,2.65-10.26,2.78-3.05,6.87-4.13,10.85-4.42,10.03-.72,19.5,2.71,29.29,4.15,4.89.72,9.86.38,13.57-3.25l-4.27-1.77c.06,1.41.08,3.1-.07,4.35-.04.31-.18,1.05-.31,1.51-.07.24-.14.47-.22.7,0,.02-.15.38-.05.14.1-.23-.1.19-.12.23-.13.23-.26.47-.4.69-.07.11-.4.55-.15.23-.35.43-.75.81-1.16,1.18-.3.27.05-.01-.29.24-.25.19-.52.36-.78.53-.59.37-1.19.72-1.81,1.04-4.99,2.62-11.34,2.07-16.82.92-1.64-.34-3.27-.77-4.88-1.27-.71-.22-1.42-.46-2.12-.73-.34-.13-.68-.26-1.02-.4.3.13-.46-.21-.54-.25-1.23-.56-2.69-.35-3.42.9-.63,1.08-.34,2.85.9,3.42,6.05,2.78,13.04,4.3,19.7,4.24,6.02-.05,13.26-2.16,16.7-7.53,1.91-2.97,2-6.74,1.86-10.15-.09-2.15-2.68-3.32-4.27-1.77-2.88,2.82-7.14,2.3-10.77,1.61-5.24-1-10.41-2.31-15.68-3.16-9.02-1.44-21.25-2.32-27.73,5.6-3.3,4.03-4.77,9.48-3.47,14.58.8,3.12,5.62,1.79,4.82-1.33h0Z" style="fill: #fff; stroke-width: 0px;"/>
  <path d="m160.89,77.7c-2.6.3-5.32-.38-7.85.51-3.12,1.09-5.02,4.12-5.31,7.33-.17,1.85.5,3.62,1.69,5.01.85,1,2.67.94,3.54,0,.97-1.06.91-2.47,0-3.54-.28-.33.35.55,0,0-.09-.14-.15-.3-.23-.44.38.61.12.28.04.01-.03-.12-.06-.24-.08-.37-.09-.42.05.7.02.04,0-.17,0-.34,0-.51,0-.09.01-.17.02-.26-.06.43-.08.54-.05.34.03-.15.05-.3.09-.45.04-.17.09-.34.15-.51.07-.21.36-.71,0-.02.15-.27.27-.56.44-.82.09-.15.21-.29.3-.44-.36.61-.17.22-.01.05.1-.11.21-.22.32-.33.48-.45-.36.2-.01-.01.14-.09.28-.18.43-.26.07-.04.15-.07.23-.11l-.36.16c.19-.18.75-.23,1-.27.67-.13-.45.03,0,0,.14-.01.27-.03.41-.04.37-.03.75-.03,1.13-.03,1.37,0,2.74.13,4.1-.03.68-.08,1.26-.23,1.77-.73.43-.43.76-1.15.73-1.77-.05-1.23-1.11-2.66-2.5-2.5h0Z" style="fill: #fff; stroke-width: 0px;"/>
  <path d="m211.44,84.72c.18.04.35.09.52.15.42.13-.49-.25-.22-.09.09.05.19.09.28.14.17.09.34.19.5.3.09.06.18.13.27.19.41.28-.45-.39-.08-.06.17.15.34.3.5.46.15.15.29.38.46.5-.03-.02-.36-.51-.15-.19.06.09.12.18.18.27s.11.18.16.28c.12.21.12.52-.04-.15.02.07.21.54.17.56-.03.01-.05-.71-.05-.33,0,.06,0,.12,0,.17,0,.16,0,.32,0,.48s-.02.3-.03.45c-.02.25-.13.65.05-.35-.02.11-.03.22-.05.33-.07.38-.19.73-.31,1.1.29-.84.15-.33-.02-.02-.05.09-.11.18-.16.27-.02.03-.05.07-.07.1-.21.32.2-.29.24-.3-.14.05-.33.37-.45.47-.03.03-.07.06-.1.09-.26.24.59-.42.29-.22-.1.06-.2.13-.3.19s-.22.12-.33.17c-.45.23.67-.23.17-.07-.27.09-.54.17-.82.22-.08.01-.15.02-.23.04-.21.04.78-.09.23-.04-.17.02-.34.02-.51.03-.42.01-.85-.01-1.27-.05-.2-.02-.63-.13.16.03-.13-.03-.27-.04-.4-.06-.23-.04-.47-.09-.7-.14-.63-.14-1.25-.31-1.86-.5-1.25-.39-2.78.46-3.08,1.75-.31,1.36.41,2.66,1.75,3.08,3.44,1.07,8.09,1.72,10.82-1.25.88-.95,1.49-2.14,1.76-3.41s.41-2.68.02-3.89c-.43-1.36-1.3-2.59-2.37-3.52s-2.24-1.7-3.58-2c-1.27-.28-2.76.38-3.08,1.75-.29,1.26.38,2.77,1.75,3.08h0Z" style="fill: #fff; stroke-width: 0px;"/>
  <path d="m5.01,171.36c1.01-9.03,5.15-17.73,11.4-24.32,2.98-3.14,6.47-5.84,10.47-7.56,2.96-1.27,6.3-1.87,9.28-2.17,7.45-.74,15.1-.39,22.51.62,3.32.45,6.63,1.06,9.86,1.95,3.45.96,6.25,2.46,9.01,4.79,4.06,3.42,8.17,6.59,12.93,8.99,2.48,1.25,5.05,2.33,7.67,3.23s5.57,2.05,8.31,1.28c3.09-.87,1.78-5.69-1.33-4.82-.98.27-2.04-.18-2.99-.45-1.17-.33-2.33-.71-3.47-1.12-2.28-.82-4.48-1.8-6.61-2.93-4.22-2.24-7.8-5.09-11.46-8.12-3.18-2.63-6.52-4.48-10.48-5.6-3.31-.94-6.71-1.55-10.12-2.02-7.81-1.08-15.82-1.57-23.69-.81-3.53.34-7.07.89-10.39,2.21-4.42,1.75-8.37,4.42-11.79,7.72C6.17,149.92,1.23,160.39.01,171.36c-.15,1.34,1.26,2.5,2.5,2.5,1.48,0,2.35-1.15,2.5-2.5h0Z" style="fill: #fff; stroke-width: 0px;"/>
  <path d="m97.74,166.51c-5.27-.32-10.12-1.47-14.67-3.98-1.22-.67-2.41-1.4-3.59-2.15-.88-.56-1.68-.93-2.75-.84s-1.99.6-2.56,1.48c-.87,1.35-.84,3.21-.95,4.78-.13,1.87-.12,3.75,0,5.62.09,1.35,1.09,2.5,2.5,2.5,1.28,0,2.59-1.15,2.5-2.5-.1-1.51-.13-3.03-.07-4.54.03-.72.08-1.44.15-2.16.05-.57.11-1.08.18-1.17l-.9.9c-.1-.02-.19,0-.26.09l-1.26-.34c.9.38,1.73,1.06,2.57,1.56s1.64.96,2.47,1.41c1.68.89,3.42,1.67,5.21,2.31,3.66,1.3,7.55,1.8,11.41,2.04,1.35.08,2.5-1.21,2.5-2.5,0-1.42-1.15-2.42-2.5-2.5h0Z" style="fill: #fff; stroke-width: 0px;"/>
  <path d="m20.64,159.71c-1.78,1.47-3.31,3.31-4.44,5.33-1.22,2.18-1.91,4.49-2.24,6.95-.08.59.34,1.37.73,1.77.43.43,1.15.76,1.77.73s1.32-.24,1.77-.73c.48-.52.64-1.07.73-1.77-.02.12-.08.52-.02.18.02-.13.05-.27.07-.4.05-.24.1-.48.15-.72.11-.45.24-.9.39-1.35.08-.23.16-.47.25-.7.04-.1.09-.2.12-.31-.2.6-.09.21-.02.07.21-.45.44-.9.68-1.33s.49-.81.76-1.2c.08-.12.16-.23.24-.34.04-.06.28-.37.06-.08s.02-.02.06-.08c.09-.11.18-.22.27-.32.66-.78,1.39-1.49,2.18-2.14,1.01-.84.93-2.68,0-3.54-1.08-.99-2.46-.89-3.54,0h0Z" style="fill: #fff; stroke-width: 0px;"/>
  <path d="m23.15,104.08c-1.23,4.52-1.59,9.52.51,13.86s6.34,7.51,10.68,8.81c4.72,1.42,10.05,1.15,14.9.61,5.27-.59,10.45-2.11,14.39-5.83,4.62-4.37,5.97-10.88,5.22-17-.16-1.34-1.03-2.5-2.5-2.5-1.22,0-2.67,1.15-2.5,2.5.52,4.25.19,8.95-2.7,12.36-2.71,3.2-6.69,4.67-10.74,5.31s-8.52.92-12.53.24c-3.71-.63-6.84-2.53-9.06-5.61-2.41-3.34-1.82-7.81-.84-11.42.84-3.11-3.98-4.44-4.82-1.33h0Z" style="fill: #fff; stroke-width: 0px;"/>
  <path d="m63.93,97.74c1.64.19,3.3-.1,4.94.11l-.66-.09c.44.06.86.16,1.27.32l-.6-.25c.29.12.56.28.82.47l-.51-.39c.28.23.53.49.76.78l-.39-.51c.3.39.54.8.73,1.24l-.25-.6c.18.45.31.9.38,1.38l-.09-.66c.04.36.05.71,0,1.07l.09-.66c-.04.31-.12.61-.23.91l.25-.6c-.11.26-.25.5-.42.73l.39-.51c-.04.06-.09.11-.14.17-.44.51-.73,1.08-.73,1.77,0,.61.27,1.35.73,1.77.93.86,2.63,1.06,3.54,0,1-1.16,1.56-2.55,1.55-4.1-.01-1.35-.42-2.72-1.11-3.88s-1.62-2.15-2.8-2.67c-1.28-.57-2.63-.76-4.03-.77-1.16,0-2.33.11-3.49-.02-.59-.07-1.36.33-1.77.73-.43.43-.76,1.15-.73,1.77s.24,1.32.73,1.77c.52.48,1.07.65,1.77.73h0Z" style="fill: #fff; stroke-width: 0px;"/>
  <path d="m17.55,96.15c-1.51,1.2-2.61,3-2.57,4.97.02.79.11,1.62.36,2.38.33,1.01.86,2,1.65,2.72,1.13,1.02,2.45,1.48,3.93,1.66,1.76.21,3.62-.2,5.3-.72,1.25-.39,2.17-1.76,1.75-3.08s-1.74-2.16-3.08-1.75c-.85.26-1.7.48-2.58.6l.66-.09c-.68.09-1.37.12-2.05.03l.66.09c-.41-.06-.8-.15-1.18-.31l.6.25c-.28-.12-.55-.27-.79-.45l.51.39c-.22-.17-.41-.36-.58-.58l.39.51c-.2-.26-.36-.55-.49-.85l.25.6c-.17-.42-.28-.86-.34-1.31l.09.66c-.05-.42-.08-.85-.04-1.27l-.09.66c.03-.23.1-.45.18-.67l-.25.6c.15-.35.35-.67.59-.98l-.39.51c.31-.39.66-.73,1.05-1.04.47-.37.73-1.2.73-1.77,0-.61-.27-1.35-.73-1.77s-1.1-.76-1.77-.73c-.7.03-1.22.3-1.77.73h0Z" style="fill: #fff; stroke-width: 0px;"/>
  <g>
    <path d="m109.92,27.34c7.65-6.67,14.08-14.72,18.93-23.64l-4.66-1.26c-1.39,15.16-2.21,30.36-2.47,45.58-.05,3.22,4.95,3.22,5,0,.25-15.22,1.08-30.42,2.47-45.58.23-2.51-3.52-3.35-4.66-1.26-4.66,8.58-10.79,16.21-18.15,22.63-1.02.89-.91,2.63,0,3.54,1.01,1.01,2.52.89,3.54,0h0Z" style="fill: #fff; stroke-width: 0px;"/>
    <path d="m108.09,52.32c9.82-.62,19.66-.66,29.48-.12,3.22.18,3.21-4.82,0-5-9.82-.54-19.66-.5-29.48.12-3.2.2-3.22,5.2,0,5h0Z" style="fill: #fff; stroke-width: 0px;"/>
    <path d="m165.22,7.42c-6.8-1.97-15.15-2.21-21.17,2.06-5.9,4.18-8.06,11.59-6.02,18.45s8.31,11.85,15.71,12.5,15.92-3.35,19.48-10.3c3.78-7.4.83-17.12-6.51-21.09-2.83-1.53-5.36,2.78-2.52,4.32,4.5,2.44,6.8,8.06,5.25,12.94-1.78,5.6-7.97,9.02-13.57,9.19s-10.42-2.47-12.54-7.52c-1.94-4.62-1.32-10.15,2.54-13.6,4.78-4.27,12.31-3.8,18.03-2.14,3.1.9,4.42-3.93,1.33-4.82h0Z" style="fill: #fff; stroke-width: 0px;"/>
  </g>
  <path d="m45.52,4.8c-4.95,7.28-9.44,14.86-13.43,22.7-.88,1.72.2,3.68,2.16,3.76,9.92.42,19.85.34,29.75-.25,3.2-.19,3.22-5.19,0-5-9.91.59-19.84.68-29.75.25l2.16,3.76c4-7.84,8.48-15.42,13.43-22.7,1.82-2.67-2.52-5.17-4.32-2.52h0Z" style="fill: #fff; stroke-width: 0px;"/>
  <path d="m52.47,15.23c.34,10.5.12,21.01-.66,31.49-.1,1.35,1.22,2.5,2.5,2.5,1.44,0,2.4-1.15,2.5-2.5.78-10.48,1-20.99.66-31.49-.1-3.21-5.1-3.22-5,0h0Z" style="fill: #fff; stroke-width: 0px;"/>
  <path d="m78.77,29.72c4.75.54,9.55.57,14.31.1,1.3-.13,2.56-1.06,2.5-2.5-.06-1.24-1.11-2.64-2.5-2.5-4.76.47-9.55.44-14.31-.1-1.3-.15-2.56,1.26-2.5,2.5.07,1.48,1.1,2.34,2.5,2.5h0Z" style="fill: #fff; stroke-width: 0px;"/>
  <path d="m66.36,94.37c.79-7.1-5.52-12.19-11.67-13.98-3.19-.93-6.51-1.07-9.74-1.81-1.45-.33-6.41-1.8-4.8-4.11.77-1.11.2-2.78-.9-3.42-1.25-.73-2.65-.21-3.42.9-2.23,3.2-.43,7.14,2.42,9.2s6.58,2.52,10.03,3.02c5.45.8,13.88,3.06,13.09,10.2-.15,1.34,1.26,2.5,2.5,2.5,1.48,0,2.35-1.15,2.5-2.5h0Z" style="fill: #fff; stroke-width: 0px;"/>
  <path d="m36.28,82.97c-3.47-.35-7.21,1.09-9.56,3.68-2.58,2.85-3.57,6.72-2.82,10.47.26,1.28,1.85,2.14,3.08,1.75,1.36-.44,2.02-1.7,1.75-3.08-.02-.09-.14-.41-.09-.51.04.35.06.43.04.24,0-.09-.02-.17-.02-.26-.02-.34-.03-.69-.01-1.04,0-.17.03-.34.04-.52.03-.51-.11.52,0-.02.07-.31.12-.62.21-.93.05-.17.1-.33.15-.5.03-.08.2-.65.09-.27s.04-.09.08-.18c.07-.16.15-.31.24-.46.17-.3.36-.59.55-.88.33-.49-.36.4.03-.04.11-.13.22-.26.34-.39.23-.25.49-.47.74-.7.34-.31-.29.2-.04.03.14-.1.28-.2.42-.29.26-.17.53-.33.8-.47.07-.04.37-.24.46-.22-.34.14-.38.16-.13.06l.16-.06c.32-.12.64-.22.97-.3.16-.04.33-.08.5-.11.08-.02.17-.03.25-.04.19-.03.11-.02-.25.03.02-.08.91-.06,1.01-.06.34,0,.68.02,1.01.05,1.31.13,2.56-1.24,2.5-2.5-.07-1.47-1.1-2.36-2.5-2.5h0Z" style="fill: #fff; stroke-width: 0px;"/>
</svg>